<svg width="17" height="17" viewBox="0 0 17 17" fill="none" xmlns="http://www.w3.org/2000/svg">
<path d="M10.795 1.41667H8.03675C6.78725 1.41667 5.797 1.41667 5.02279 1.52151C4.22521 1.62917 3.57992 1.85584 3.07133 2.36655C2.56204 2.87726 2.33608 3.52538 2.22913 4.3258C2.125 5.10355 2.125 6.09734 2.125 7.3518V11.487C2.125 12.5552 2.77667 13.4704 3.70246 13.8543C3.655 13.2097 3.655 12.3066 3.655 11.5543V8.00559C3.655 7.09821 3.655 6.31551 3.73858 5.68934C3.82854 5.01784 4.03113 4.37467 4.55104 3.85263C5.07096 3.33059 5.712 3.1273 6.38067 3.03663C7.004 2.95305 7.78317 2.95305 8.68771 2.95305H10.8623C11.7661 2.95305 12.5439 2.95305 13.1679 3.03663C12.9809 2.55948 12.6545 2.14972 12.2312 1.86077C11.808 1.57181 11.3075 1.41706 10.795 1.41667Z" fill="#019AE5"/>
<path d="M4.67505 8.07287C4.67505 6.14195 4.67505 5.17649 5.27288 4.57654C5.87001 3.97658 6.83122 3.97658 8.75505 3.97658H10.795C12.7182 3.97658 13.6801 3.97658 14.2779 4.57654C14.875 5.17649 14.875 6.14195 14.875 8.07287V11.487C14.875 13.418 14.875 14.3834 14.2779 14.9834C13.6801 15.5833 12.7182 15.5833 10.795 15.5833H8.75505C6.83192 15.5833 5.87001 15.5833 5.27288 14.9834C4.67505 14.3834 4.67505 13.418 4.67505 11.487V8.07287Z" fill="#019AE5"/>
</svg>
