<svg width="23" height="22" viewBox="0 0 23 22" fill="none" xmlns="http://www.w3.org/2000/svg">
<path d="M15.1091 21H12.1343C11.4491 21 10.7651 20.9428 10.0895 20.829V20.829C8.37483 20.5402 6.7408 19.8914 5.295 18.9254L4.93553 18.6853M21.635 12.7647V9.53074C21.635 8.4593 21.3973 7.4012 20.939 6.4327V6.4327C20.4186 5.33287 19.6296 4.38184 18.6447 3.6674L18.2499 3.38106C17.7425 3.01294 17.1985 2.69795 16.6266 2.44108L15.7516 2.04809C14.5083 1.48963 13.1717 1.16795 11.8104 1.09957L11.5645 1.08721C10.4164 1.02954 9.2673 1.17851 8.17188 1.52702V1.52702C6.94858 1.91622 5.81575 2.54679 4.84039 3.38143L4.77881 3.43413C3.75916 4.30668 2.92554 5.37552 2.32762 6.57699L2.04144 7.15205C1.49483 8.2504 1.18041 9.4496 1.11779 10.6749V10.6749C1.04053 12.1866 1.34882 13.6931 2.0137 15.053L2.33467 15.7095C2.92348 16.9138 3.82089 17.9406 4.93553 18.6853V18.6853M4.93553 18.6853L5.0419 18.5635L5.63578 17.784C5.80688 17.5595 5.99541 17.3488 6.19963 17.1539L6.26863 17.088C6.79173 16.5887 7.41803 16.2103 8.10332 15.9794V15.9794C8.61176 15.8082 9.14469 15.7208 9.6812 15.7208H10.7857H15.1091M19.7204 13.9412V17.2944M19.7204 20.3909V17.2944M19.7204 17.2944H16.3918H23M12.2748 6.07614L11.997 6.00986C11.6189 5.91963 11.2263 5.90738 10.8433 5.97385V5.97385C10.4545 6.04132 10.0839 6.18843 9.75469 6.40596L9.53816 6.54904C9.10153 6.83756 8.75082 7.23853 8.52299 7.70968V7.70968C8.33205 8.10454 8.23287 8.53747 8.23287 8.97607V9.14418C8.23287 9.85463 8.46292 10.546 8.88859 11.1148L8.94859 11.195C9.17812 11.5017 9.46803 11.7581 9.80045 11.9485V11.9485C10.1688 12.1594 10.5802 12.284 11.0037 12.3129L11.1583 12.3234C11.6145 12.3545 12.0723 12.2954 12.5057 12.1495L12.7134 12.0795C13.3266 11.8729 13.8575 11.4752 14.228 10.9447V10.9447C14.5504 10.4831 14.7376 9.94077 14.7686 9.37863L14.7801 9.17047C14.8111 8.60834 14.6806 8.04909 14.4039 7.55876L14.3831 7.52189C14.1854 7.17144 13.9135 6.86849 13.5863 6.63428V6.63428C13.3516 6.46627 13.092 6.33614 12.8169 6.24864L12.2748 6.07614Z" stroke="#2CA5E0" stroke-width="2"/>
</svg>
