<svg width="24" height="22" viewBox="0 0 24 22" fill="none" xmlns="http://www.w3.org/2000/svg">
<path d="M11.9813 2.07143V21M11.9813 2.07143V2.07143C11.4943 1.60578 10.8798 1.29552 10.216 1.18011L9.43864 1.04497C9.26737 1.0152 9.09236 1.01396 8.92069 1.04132L8.71558 1.07401C7.63183 1.24671 6.74641 2.03192 6.4454 3.08726L6.37861 3.32143L6.19185 5.46429M11.9813 2.07143L12.9151 1.53571L13.7988 1.21885C14.2027 1.07404 14.6285 1 15.0576 1H15.2246C15.6714 1 16.1124 1.10001 16.5155 1.2927L16.6748 1.36887C16.9054 1.47913 17.1134 1.63146 17.2882 1.81804V1.81804C17.5983 2.14911 17.7708 2.58573 17.7708 3.03934L17.7708 4.21429V5.46429M11.9813 21H6.22502C5.48928 21 4.78672 20.6939 4.28578 20.155V20.155C3.83038 19.6651 3.57725 19.0211 3.57725 18.3522V10.2857M11.9813 21H17.744C18.3646 21 18.9654 20.7818 19.4413 20.3836V20.3836C19.9297 19.975 20.2543 19.4038 20.3555 18.7751L20.4894 17.943C20.5444 17.601 20.563 17.2541 20.5449 16.9082L20.1986 10.2857M3.57725 10.2857H3.34269C2.77177 10.2857 2.22049 10.0772 1.79245 9.69943V9.69943C1.28861 9.25473 1 8.61262 1 7.94059V7.94059C1 7.33805 1.23115 6.75631 1.64582 6.31916L1.70117 6.2608C2.18353 5.75228 2.85365 5.46429 3.55456 5.46429H6.19185M3.57725 10.2857H20.1986M20.1986 10.2857H20.3524C21.1849 10.2857 21.9572 9.85218 22.3907 9.14157L22.4146 9.10247C22.7839 8.49711 22.8525 7.75499 22.6004 7.09218V7.09218C22.3784 6.50849 21.9281 6.04052 21.3534 5.79628L21.1158 5.6953C20.757 5.54286 20.3713 5.46429 19.9815 5.46429H17.7708M6.19185 5.46429H17.7708" stroke="#2CA5E0" stroke-width="2"/>
</svg>
