<svg width="19" height="18" viewBox="0 0 19 18" fill="none" xmlns="http://www.w3.org/2000/svg">
<path d="M12 16.5783H9.68432C9.14778 16.5783 8.61222 16.5326 8.08344 16.4417V16.4417C6.7491 16.2123 5.47965 15.6988 4.3611 14.9359L4.06829 14.7362M17.0878 10.0245V7.436C17.0878 6.59272 16.9041 5.75955 16.5495 4.99446V4.99446C16.1409 4.11309 15.5177 3.34833 14.737 2.77024L14.4547 2.56119C14.0551 2.26531 13.6258 2.01171 13.1739 1.80448L12.4947 1.49311C11.5298 1.0507 10.4896 0.795531 9.42948 0.741169L9.24556 0.731739C8.34476 0.685547 7.4431 0.804703 6.58522 1.08331V1.08331C5.63582 1.39164 4.75875 1.88917 4.00695 2.54585L3.93656 2.60734C3.14782 3.29631 2.50502 4.13624 2.04607 5.0776L1.81486 5.55184C1.38662 6.4302 1.14066 7.38617 1.0918 8.36214V8.36214C1.03155 9.5654 1.27258 10.7647 1.79302 11.8512L2.04768 12.3829C2.50213 13.3317 3.19919 14.1435 4.06829 14.7362V14.7362M4.06829 14.7362L4.15122 14.6393L4.61662 14.0158C4.74842 13.8392 4.89391 13.6733 5.05174 13.5195L5.11504 13.4579C5.5179 13.0654 6.00268 12.767 6.53456 12.5841V12.5841C6.93315 12.447 7.35172 12.377 7.77321 12.377H8.62927H12M15.5951 10.9608V13.6294M15.5951 16.0936V13.6294M15.5951 13.6294H13H18.152M9.79024 4.70158L9.57473 4.64909C9.27936 4.57714 8.97225 4.56738 8.6729 4.6204V4.6204C8.37075 4.67393 8.08319 4.79024 7.8288 4.96183L7.66583 5.07175C7.31939 5.30543 7.04219 5.628 6.86328 6.00566V6.00566C6.71562 6.31736 6.63902 6.65797 6.63902 7.00289V7.15577C6.63902 7.71347 6.81681 8.25664 7.14655 8.70641L7.2013 8.7811C7.37742 9.02132 7.60098 9.22283 7.85813 9.37316V9.37316C8.14718 9.54213 8.47133 9.64213 8.80534 9.66537L8.919 9.67328C9.27506 9.69806 9.63246 9.65102 9.96999 9.53496L10.1159 9.48477C10.6045 9.31678 11.0258 8.99582 11.3176 8.56948V8.56948C11.5661 8.20625 11.7101 7.78172 11.7339 7.34224L11.7439 7.1561C11.7678 6.71366 11.6668 6.27342 11.4525 5.88563L11.4306 5.84596C11.2787 5.57112 11.0686 5.33275 10.8151 5.14748V5.14748C10.6306 5.01266 10.4258 4.908 10.2085 4.83742L9.79024 4.70158Z" stroke="#2CA5E0" stroke-width="1.4"/>
</svg>
