<svg width="18" height="16" viewBox="0 0 18 16" fill="none" xmlns="http://www.w3.org/2000/svg">
<path d="M8.73684 1.7725V15.0641M8.73684 1.7725V1.7725C8.3937 1.44549 7.9612 1.22773 7.49416 1.1468L6.94519 1.05168C6.82466 1.0308 6.70151 1.02993 6.5807 1.04912L6.43674 1.07199C5.67267 1.19334 5.04813 1.74642 4.83527 2.49021L4.78947 2.65024L4.65789 4.15495M8.73684 1.7725L9.39474 1.39632L10.0172 1.17387C10.3019 1.07214 10.6019 1.02014 10.9042 1.02014H11.0226C11.3369 1.02014 11.6472 1.0903 11.931 1.22549L12.0444 1.27956C12.2064 1.35672 12.3525 1.4634 12.4754 1.59413V1.59413C12.694 1.82685 12.8158 2.13419 12.8158 2.45354L12.8158 3.27721V4.15495M8.73684 15.0641H4.678C4.16162 15.0641 3.66843 14.8497 3.31622 14.4721V14.4721C2.99463 14.1273 2.81579 13.6734 2.81579 13.2019V7.54055M8.73684 15.0641H12.7993C13.235 15.0641 13.657 14.9113 13.9916 14.6322V14.6322C14.3364 14.3447 14.5657 13.9423 14.6373 13.4991L14.7311 12.918C14.7699 12.6775 14.783 12.4336 14.7703 12.1904L14.5263 7.54055M2.81579 7.54055H2.64802C2.24733 7.54055 1.86037 7.39457 1.55952 7.12992V7.12992C1.20384 6.81704 1 6.36615 1 5.89244V5.89244C1 5.46936 1.16267 5.06241 1.45434 4.75594L1.49521 4.713C1.83435 4.35665 2.30477 4.15495 2.79669 4.15495H4.65789M2.81579 7.54055H14.5263M14.5263 7.54055H14.6392C15.223 7.54055 15.7648 7.23695 16.0696 6.73902L16.0871 6.71034C16.3475 6.28498 16.3959 5.76292 16.2181 5.29697V5.29697C16.0619 4.88781 15.7457 4.55998 15.3425 4.38918L15.1716 4.31682C14.9194 4.21 14.6483 4.15495 14.3744 4.15495H12.8158M4.65789 4.15495H12.8158" stroke="#2CA5E0" stroke-width="1.5"/>
</svg>
